<svg xmlns="http://www.w3.org/2000/svg" viewBox="0 0 1200 630" font-family="-apple-system,Segoe UI,Roboto,Helvetica,Arial,'PingFang SC','Microsoft YaHei',sans-serif">
  <defs>
    <linearGradient id="bg" x1="0" y1="0" x2="1" y2="1"><stop offset="0" stop-color="#0c1a3a"/><stop offset="1" stop-color="#0c2160"/></linearGradient>
    <radialGradient id="glow" cx="0.75" cy="0.25" r="0.85"><stop offset="0" stop-color="#1e84f5" stop-opacity="0.35"/><stop offset="1" stop-color="#1e84f5" stop-opacity="0"/></radialGradient>
  </defs>
  <rect width="1200" height="630" fill="url(#bg)"/>
  <rect width="1200" height="630" fill="url(#glow)"/>
  <g stroke="#ffffff" stroke-opacity="0.05"><path d="M0 158 H1200 M0 316 H1200 M0 474 H1200 M300 0 V630 M600 0 V630 M900 0 V630"/></g>
  <g transform="translate(80,84)">
    <rect rx="21" width="220" height="42" fill="#1e84f5" fill-opacity="0.16" stroke="#1e84f5" stroke-opacity="0.5"/>
    <circle cx="28" cy="21" r="8" fill="#1e84f5"/>
    <text x="48" y="28" fill="#c0d8ff" font-size="19" font-weight="700">研发工具 · 依赖下载</text>
  </g>
  <text x="80" y="278" fill="#ffffff" font-size="60" font-weight="800">镜像 / 模型下载慢？</text>
  <text x="80" y="358" fill="#90c0ff" font-size="42" font-weight="700">IEPL 专线加速研发依赖</text>
  <text x="80" y="430" fill="#6a90c8" font-size="22">Docker Hub · Hugging Face · npm / pip</text>
  <g transform="translate(80,478)">
    <rect rx="22" width="320" height="44" fill="#1e84f5" fill-opacity="0.18" stroke="#1e84f5" stroke-opacity="0.55"/>
    <text x="24" y="29" fill="#c0d8ff" font-size="20" font-weight="700">🚀 免费体验 · nasacode.com</text>
  </g>
  <g transform="translate(940,300)">
    <circle r="100" fill="none" stroke="#1e84f5" stroke-opacity="0.3" stroke-width="2"/>
    <g fill="none" stroke="#5daeff" stroke-opacity="0.45" stroke-width="2">
      <rect x="-70" y="-20" width="30" height="26" rx="4"/>
      <rect x="-35" y="-20" width="30" height="26" rx="4"/>
      <rect x="0" y="-20" width="30" height="26" rx="4"/>
      <rect x="-35" y="-50" width="30" height="26" rx="4"/>
    </g>
    <clipPath id="nc-logo-clip"><rect x="-32" y="-32" width="64" height="64" rx="14"/></clipPath>
    <image href="/assets/images/nasacode-logo.png" x="-32" y="-32" width="64" height="64" clip-path="url(#nc-logo-clip)"/>
  </g>
</svg>
