<svg xmlns="http://www.w3.org/2000/svg" viewBox="0 0 1200 630" font-family="-apple-system,Segoe UI,Roboto,Helvetica,Arial,'PingFang SC','Microsoft YaHei',sans-serif">
  <defs>
    <linearGradient id="bg" x1="0" y1="0" x2="1" y2="1"><stop offset="0" stop-color="#0c1a3a"/><stop offset="1" stop-color="#0c2160"/></linearGradient>
    <radialGradient id="glow" cx="0.8" cy="0.2" r="0.9"><stop offset="0" stop-color="#1e84f5" stop-opacity="0.3"/><stop offset="1" stop-color="#1e84f5" stop-opacity="0"/></radialGradient>
  </defs>
  <rect width="1200" height="630" fill="url(#bg)"/>
  <rect width="1200" height="630" fill="url(#glow)"/>
  <g stroke="#ffffff" stroke-opacity="0.05"><path d="M0 158 H1200 M0 316 H1200 M0 474 H1200 M300 0 V630 M600 0 V630 M900 0 V630"/></g>
  <g transform="translate(80,84)">
    <rect rx="21" width="200" height="42" fill="#1e84f5" fill-opacity="0.16" stroke="#1e84f5" stroke-opacity="0.5"/>
    <circle cx="28" cy="21" r="8" fill="#1e84f5"/>
    <text x="48" y="28" fill="#c0d8ff" font-size="19" font-weight="700">产品介绍</text>
  </g>
  <text x="80" y="268" fill="#ffffff" font-size="64" font-weight="800">NasaCode</text>
  <text x="80" y="348" fill="#90c0ff" font-size="44" font-weight="700">AI VPN · 全球加速器</text>
  <text x="80" y="422" fill="#6a90c8" font-size="24">极速稳定 · 隐私安全 · 全平台畅享</text>
  <g transform="translate(80,470)">
    <rect rx="22" width="300" height="44" fill="#1e84f5" fill-opacity="0.18" stroke="#1e84f5" stroke-opacity="0.55"/>
    <text x="24" y="29" fill="#c0d8ff" font-size="20" font-weight="700">🌐 nasacode.com</text>
  </g>
  <!-- logo decoration -->
  <g transform="translate(950,310)">
    <circle r="110" fill="none" stroke="#1e84f5" stroke-opacity="0.28" stroke-width="1.8"/>
    <ellipse rx="55" ry="110" fill="none" stroke="#1e84f5" stroke-opacity="0.4" stroke-width="1.8"/>
    <clipPath id="nc-logo-clip"><rect x="-40" y="-40" width="80" height="80" rx="18"/></clipPath>
    <image href="/assets/images/nasacode-logo.png" x="-40" y="-40" width="80" height="80" clip-path="url(#nc-logo-clip)"/>
  </g>
</svg>
